<?xml version="1.0" encoding="UTF-8" standalone="no"?>
<svg
   xmlns:dc="http://purl.org/dc/elements/1.1/"
   xmlns:cc="http://creativecommons.org/ns#"
   xmlns:rdf="http://www.w3.org/1999/02/22-rdf-syntax-ns#"
   xmlns:svg="http://www.w3.org/2000/svg"
   xmlns="http://www.w3.org/2000/svg"
   xmlns:sodipodi="http://sodipodi.sourceforge.net/DTD/sodipodi-0.dtd"
   xmlns:inkscape="http://www.inkscape.org/namespaces/inkscape"
   enable-background="new 0 0 512 512"
   height="128"
   id="Layer_1"
   version="1.1"
   viewBox="0 0 128 128"
   width="128"
   xml:space="preserve"
   inkscape:version="0.91 r13725"
   sodipodi:docname="youtube.svg"><metadata
     id="metadata27"><rdf:RDF><cc:Work
         rdf:about=""><dc:format>image/svg+xml</dc:format><dc:type
           rdf:resource="http://purl.org/dc/dcmitype/StillImage" /><dc:title /></cc:Work></rdf:RDF></metadata><defs
     id="defs25" /><sodipodi:namedview
     pagecolor="#ffffff"
     bordercolor="#666666"
     borderopacity="1"
     objecttolerance="10"
     gridtolerance="10"
     guidetolerance="10"
     inkscape:pageopacity="0"
     inkscape:pageshadow="2"
     inkscape:window-width="1280"
     inkscape:window-height="712"
     id="namedview23"
     showgrid="false"
     fit-margin-top="0"
     fit-margin-left="0"
     fit-margin-right="0"
     fit-margin-bottom="0"
     inkscape:zoom="3.984375"
     inkscape:cx="64"
     inkscape:cy="64"
     inkscape:window-x="0"
     inkscape:window-y="1"
     inkscape:window-maximized="1"
     inkscape:current-layer="Layer_1" /><rect
     style="opacity:1;fill:#ffffff;fill-opacity:1;stroke:none;stroke-width:10;stroke-linejoin:miter;stroke-miterlimit:4;stroke-dasharray:none"
     id="rect4143"
     width="91.356865"
     height="64"
     x="16.062746"
     y="33.129414" /><g
     id="g3"
     transform="matrix(0.25712931,0,0,0.25712931,-1.8251038,-1.8251038)"><linearGradient
       gradientUnits="userSpaceOnUse"
       id="SVGID_1_"
       x1="29.8503"
       x2="443.08578"
       y1="48.8522"
       y2="462.08771"><stop
         offset="0"
         style="stop-color:#DD272D"
         id="stop6" /><stop
         offset="0.5153"
         style="stop-color:#CA2429"
         id="stop8" /><stop
         offset="1"
         style="stop-color:#B22025"
         id="stop10" /></linearGradient><polygon
       points="313.196,256 217.949,198.851 217.949,313.149 "
       id="polygon12"
       style="fill:url(#SVGID_1_)" /><linearGradient
       gradientUnits="userSpaceOnUse"
       id="SVGID_2_"
       x1="39.351299"
       x2="452.58679"
       y1="39.351299"
       y2="452.5867"><stop
         offset="0"
         style="stop-color:#DD272D"
         id="stop15" /><stop
         offset="0.5153"
         style="stop-color:#CA2429"
         id="stop17" /><stop
         offset="1"
         style="stop-color:#B22025"
         id="stop19" /></linearGradient><path
       d="M 256,7.098 C 118.535,7.098 7.098,118.535 7.098,256 7.098,393.465 118.535,504.902 256,504.902 393.465,504.902 504.902,393.465 504.902,256 504.902,118.535 393.465,7.098 256,7.098 Z m 152.349,261.189 c 0,26.307 -3.048,52.605 -3.048,52.605 0,0 -2.981,22.402 -12.106,32.251 -11.592,12.935 -24.574,13.011 -30.527,13.773 -42.642,3.267 -106.668,3.381 -106.668,3.381 0,0 -79.227,-0.771 -103.601,-3.267 -6.782,-1.353 -21.993,-0.962 -33.594,-13.897 -9.134,-9.849 -12.106,-32.251 -12.106,-32.251 0,0 -3.048,-26.289 -3.048,-52.605 l 0,-24.65 c 0,-26.298 3.048,-52.596 3.048,-52.596 0,0 2.981,-22.412 12.106,-32.279 11.601,-12.935 24.574,-13.011 30.527,-13.744 42.633,-3.305 106.592,-3.305 106.592,-3.305 l 0.143,0 c 0,0 63.959,0 106.601,3.305 5.953,0.733 18.935,0.81 30.527,13.744 9.134,9.868 12.106,32.279 12.106,32.279 0,0 3.048,26.298 3.048,52.605 l 0,24.651 z"
       id="path21"
       style="fill:url(#SVGID_2_)"
       inkscape:connector-curvature="0" /></g></svg>